<svg version="1.0" xmlns="http://www.w3.org/2000/svg"
     width="300" height="300" viewBox="0 0 600 497"
     preserveAspectRatio="xMidYMid meet">
    <g transform="translate(0,497) scale(0.1,-0.1)"
       fill="#845ec2" stroke="none">
        <path d="M901 4267 c456 -315 860 -656 1310 -1106 286 -286 468 -486 654 -716
49 -60 92 -114 95 -118 4 -4 56 52 116 125 497 607 1070 1154 1714 1639 91 68
211 156 268 194 57 38 99 71 94 73 -13 4 -234 -71 -417 -143 -465 -182 -936
-426 -1392 -722 l-112 -73 -25 83 c-53 174 -189 635 -208 702 -11 39 -23 74
-27 78 -4 4 -22 -43 -40 -105 -25 -85 -165 -558 -217 -730 -3 -10 -9 -18 -14
-18 -5 0 -53 29 -107 63 -485 314 -982 568 -1478 755 -159 60 -316 112 -337
112 -6 0 50 -42 123 -93z" />
        <path d="M2238 2659 c-599 -523 -1185 -1146 -1652 -1754 -142 -184 -296 -397
-296 -408 0 -4 41 13 90 38 296 148 738 289 1195 379 190 38 389 71 491 82 34
3 66 9 71 13 5 3 46 76 90 161 119 230 238 430 399 670 79 118 158 234 175
257 l32 42 -78 98 c-150 187 -407 483 -426 491 -4 2 -45 -30 -91 -69z" />
        <path d="M3529 2648 c-180 -201 -419 -491 -419 -510 0 -9 137 -206 161 -233 6
-6 16 0 26 15 30 42 318 392 421 510 l100 115 -21 23 c-26 28 -182 162 -189
162 -3 0 -38 -37 -79 -82z" />
        <path d="M3965 2386 c-6 -8 -64 -76 -130 -152 -183 -211 -426 -517 -423 -534
3 -18 141 -249 148 -250 3 0 25 26 50 58 85 108 338 407 464 547 l127 140
-108 103 c-59 56 -109 102 -112 102 -4 0 -11 -6 -16 -14z" />
        <path d="M4250 1929 c-112 -123 -429 -501 -518 -617 l-56 -74 59 -116 60 -117
60 -8 c632 -79 1287 -256 1690 -457 54 -27 101 -48 102 -46 9 8 -256 362 -448
601 -232 288 -605 709 -782 883 l-64 64 -103 -113z" />
    </g>
</svg>
