<svg version="1.0" xmlns="http://www.w3.org/2000/svg"
  viewBox="0 0 480 542" width="300" height="300"
 preserveAspectRatio="xMidYMid meet">
<g transform="translate(0,542) scale(0.1,-0.1)"
fill="#00a8a8" stroke="none">
<path d="M2495 4846 c-502 -184 -732 -293 -1020 -486 -239 -160 -469 -364
-581 -514 -210 -280 -296 -578 -249 -856 31 -186 98 -355 201 -506 113 -167
315 -384 514 -552 420 -356 545 -522 653 -868 57 -180 72 -291 72 -527 0 -141
4 -216 10 -213 6 2 102 41 215 86 906 363 1511 848 1683 1351 114 331 51 678
-183 1012 -47 68 -151 179 -395 422 -421 421 -527 551 -640 788 -30 62 -66
155 -82 207 -27 91 -28 104 -28 300 1 171 4 221 22 300 12 52 24 103 28 113 5
11 3 17 -6 17 -8 -1 -104 -34 -214 -74z m-230 -543 c3 -10 19 -67 35 -128 35
-133 80 -253 167 -443 36 -79 63 -145 60 -148 -18 -18 -827 409 -827 436 0 32
108 102 320 207 187 94 232 108 245 76z m-609 -724 c461 -261 881 -465 1334
-648 222 -90 282 -125 350 -198 129 -141 245 -333 200 -333 -39 0 -559 176
-945 320 -323 121 -737 313 -1025 476 -216 122 -410 245 -426 269 -20 31 -9
54 69 151 83 103 113 127 148 120 15 -3 148 -73 295 -157z m-311 -710 c506
-262 779 -388 1235 -571 231 -93 304 -119 700 -254 183 -63 336 -116 338 -119
6 -6 -90 -175 -115 -201 -12 -13 -33 -24 -46 -24 -13 0 -84 21 -158 46 -74 25
-217 74 -319 109 -261 89 -515 185 -692 261 -332 144 -984 463 -1058 518 -25
18 -60 58 -78 88 -49 83 -137 308 -120 308 2 0 143 -72 313 -161z m1318 -1363
c252 -96 461 -177 465 -180 14 -15 -106 -116 -218 -184 -114 -69 -390 -212
-409 -212 -28 0 -37 16 -66 135 -39 157 -97 316 -167 452 -68 135 -80 163 -70
163 4 0 213 -78 465 -174z"/>
</g>
</svg>
