<?xml version="1.0" encoding="UTF-8"?>
<svg version="1.1" xmlns="http://www.w3.org/2000/svg" width="840" height="840">
<path d="M0 0 C0.66 0 1.32 0 2 0 C2.52787109 1.46759766 2.52787109 1.46759766 3.06640625 2.96484375 C6.06277059 11.02374673 9.22576328 17.51060553 15 24 C15.45890625 24.61101562 15.9178125 25.22203125 16.390625 25.8515625 C22.91187452 34.35916963 33.11137355 39.64687695 43.5 41.6875 C44.325 41.790625 45.15 41.89375 46 42 C45.34723878 45.48945196 43.93399598 47.93870291 42.0625 50.9375 C23.2282486 82.70100185 9.41866754 121.14942783 6 158 C5.89042969 159.00804687 5.78085937 160.01609375 5.66796875 161.0546875 C3.31313382 185.73335756 5.21605443 209.46872032 13 233 C13.32411865 233.99483398 13.32411865 233.99483398 13.65478516 235.00976562 C20.63387024 256.0079978 30.98808882 276.08766037 40.6875 295.9375 C95.35792008 407.82579898 95.35792008 407.82579898 82 465 C81.7215625 466.27359375 81.443125 467.5471875 81.15625 468.859375 C75.54655961 492.16860574 63.03114798 513.38091087 46.42822266 530.52050781 C45.01310314 531.98642649 43.62153876 533.47222272 42.23046875 534.9609375 C-0.01450643 579.43356092 -60.43018564 604.26814024 -121 606 C-184.87507852 607.57756539 -248.48143248 595.06230483 -306 567 C-306.84256348 566.59168945 -307.68512695 566.18337891 -308.55322266 565.76269531 C-326.46334285 556.99259034 -343.04264114 545.9213825 -358.44335938 533.27148438 C-360.04813403 531.96068349 -361.67005955 530.67393731 -363.296875 529.390625 C-364.31265625 528.58109375 -365.3284375 527.7715625 -366.375 526.9375 C-367.26960938 526.22464844 -368.16421875 525.51179687 -369.0859375 524.77734375 C-369.71757812 524.19082031 -370.34921875 523.60429688 -371 523 C-371 522.34 -371 521.68 -371 521 C-371.5887793 520.73574219 -372.17755859 520.47148438 -372.78417969 520.19921875 C-375.08072584 518.95631056 -376.60833166 517.64993519 -378.453125 515.8125 C-379.071875 515.19632813 -379.690625 514.58015625 -380.328125 513.9453125 C-380.96234375 513.30335938 -381.5965625 512.66140625 -382.25 512 C-382.8996875 511.35804688 -383.549375 510.71609375 -384.21875 510.0546875 C-384.83234375 509.43851563 -385.4459375 508.82234375 -386.078125 508.1875 C-386.63918945 507.62417969 -387.20025391 507.06085938 -387.77832031 506.48046875 C-389 505 -389 505 -389 503 C-389.99 502.67 -390.98 502.34 -392 502 C-394.74240874 499.10325656 -397.14525767 495.92606194 -399.60205078 492.78515625 C-400.56156827 491.55986951 -401.52638053 490.3387162 -402.49560547 489.12109375 C-411.15843175 478.23099285 -418.84756059 466.93361962 -426 455 C-426.41233887 454.31583008 -426.82467773 453.63166016 -427.24951172 452.92675781 C-433.75771896 442.0359104 -439.08361748 430.68750142 -444 419 C-444.34417969 418.18466797 -444.68835938 417.36933594 -445.04296875 416.52929688 C-458.89176248 383.23382535 -465.49502465 347.91874494 -467 312 C-467.03464355 311.19208008 -467.06928711 310.38416016 -467.10498047 309.55175781 C-467.28111997 304.69205796 -467.20972634 299.8583208 -467 295 C-466.96422852 294.07638672 -466.92845703 293.15277344 -466.89160156 292.20117188 C-465.02361424 249.46925757 -451.34992516 211.33122975 -421.42871094 180.47558594 C-420.10928272 179.11286821 -418.80769241 177.73293958 -417.5078125 176.3515625 C-376.61208463 133.84682238 -314.29645383 110.94099753 -256.9609375 104.01171875 C-256.2572447 103.92598602 -255.5535519 103.8402533 -254.82853508 103.75192261 C-236.86089665 101.58605559 -218.8323243 100.46973229 -200.7746582 99.35931396 C-152.32014866 96.37672363 -108.87136758 88.80153379 -69 59 C-68.29117676 58.47229004 -67.58235352 57.94458008 -66.85205078 57.40087891 C-55.2904149 48.7544106 -44.00857186 39.83651825 -33.328125 30.11328125 C-31.26067691 28.23662115 -29.17113396 26.39255427 -27.0625 24.5625 C-23.83440488 21.75177475 -20.66261557 18.884201 -17.5 16 C-10.16424419 9.3255814 -10.16424419 9.3255814 -7.5625 7 C-6.96566406 6.46375 -6.36882812 5.9275 -5.75390625 5.375 C-3.92596242 3.94195718 -2.10785287 2.96358988 0 2 C0 1.34 0 0.68 0 0 Z " fill="#3E7614" transform="translate(643,77)"/>
<path d="M0 0 C0.515625 1.19625 1.03125 2.3925 1.5625 3.625 C5.49017758 11.39795634 11.99953885 15.1162848 20 18 C23.53632285 19.11020015 26.82116295 19.11444926 30.515625 19.09765625 C32.39121094 19.09282227 32.39121094 19.09282227 34.3046875 19.08789062 C35.60664062 19.07951172 36.90859375 19.07113281 38.25 19.0625 C39.56742188 19.05798828 40.88484375 19.05347656 42.2421875 19.04882812 C45.49483741 19.03704316 48.74739584 19.02059011 52 19 C50.22969183 22.83937481 48.05748952 24.99790272 44.875 27.8125 C44.37782471 28.25480957 43.88064941 28.69711914 43.3684082 29.15283203 C41.91744346 30.44106957 40.45888137 31.72073467 39 33 C38.33613281 33.58910156 37.67226563 34.17820313 36.98828125 34.78515625 C35.00382317 36.53716154 33.00228307 38.26838951 31 40 C29.52853516 41.28970703 29.52853516 41.28970703 28.02734375 42.60546875 C13.73031516 55.07299979 -1.1566564 66.55219856 -17.12890625 76.79882812 C-18.66671245 77.78604192 -20.19421857 78.78928239 -21.71875 79.796875 C-52.0676372 99.12870041 -87.18684963 101.38655976 -122.03729248 103.79425049 C-184.96898645 107.84475299 -184.96898645 107.84475299 -246 123 C-246.73202637 123.25362305 -247.46405273 123.50724609 -248.21826172 123.76855469 C-284.76089825 136.53141168 -318.83344774 155.48402013 -348 181 C-348.91652344 181.79277344 -349.83304688 182.58554688 -350.77734375 183.40234375 C-354.93247533 186.76065331 -354.93247533 186.76065331 -358 191 C-358.66 191 -359.32 191 -360 191 C-360.23460937 191.556875 -360.46921875 192.11375 -360.7109375 192.6875 C-362.31734639 195.56930019 -364.33856897 197.62154543 -366.625 200 C-371.8174086 205.57211283 -375.99411931 211.51320457 -380 218 C-380.391875 218.62116699 -380.78375 219.24233398 -381.1875 219.88232422 C-414.14905889 272.32467944 -414.95195765 338.14972908 -401.65234375 397.046875 C-395.44623606 423.48043209 -386.91371893 449.03399911 -374 473 C-372.76165936 475.33129111 -371.52636698 477.66417969 -370.29150391 479.99731445 C-369.49204687 481.50332381 -368.68854591 483.00719579 -367.88037109 484.50854492 C-366.37568428 487.3143196 -365.00897364 489.97307907 -364 493 C-367.92358657 491.38385601 -370.71383961 488.68662896 -373.75 485.8125 C-374.81710352 484.81836082 -375.88481304 483.82487172 -376.953125 482.83203125 C-377.47197266 482.34814941 -377.99082031 481.86426758 -378.52539062 481.36572266 C-384.15573858 476.1379316 -384.15573858 476.1379316 -390.21875 471.4375 C-390.8065625 470.963125 -391.394375 470.48875 -392 470 C-392 469.34 -392 468.68 -392 468 C-392.58652344 467.7421875 -393.17304688 467.484375 -393.77734375 467.21875 C-396.17337123 465.90493528 -397.68911552 464.4781599 -399.5625 462.5 C-401.67524223 460.27903267 -403.41613626 458.72257583 -406 457 C-406 456.34 -406 455.68 -406 455 C-406.83963287 454.64736084 -406.83963287 454.64736084 -407.69622803 454.28759766 C-410.56220238 452.68578033 -412.53526452 450.7191402 -414.86035156 448.3984375 C-415.32910706 447.93318665 -415.79786255 447.46793579 -416.28082275 446.98858643 C-417.82247932 445.45570362 -419.35673904 443.91565558 -420.890625 442.375 C-421.96078747 441.30618497 -423.03124667 440.23766697 -424.10198975 439.16943359 C-426.34111749 436.93325082 -428.5765963 434.69349907 -430.80957031 432.45117188 C-433.6768374 429.57248304 -436.55302616 426.70290216 -439.43198013 423.83590698 C-441.64198179 421.6331173 -443.84721633 419.42560499 -446.05101776 417.21661377 C-447.1101359 416.15615873 -448.17074926 415.09719491 -449.23285675 414.03973389 C-450.71253049 412.56511748 -452.18567746 411.08428062 -453.65722656 409.6015625 C-454.49787659 408.75932129 -455.33852661 407.91708008 -456.20465088 407.04931641 C-458 405 -458 405 -458 403 C-458.99 402.67 -459.98 402.34 -461 402 C-462.5078125 400.50390625 -462.5078125 400.50390625 -464.125 398.5625 C-466.81947656 395.38120625 -469.56266639 392.26533364 -472.375 389.1875 C-476.27680286 384.86388062 -479.98148498 380.41257548 -483.640625 375.8828125 C-485.65155717 373.42574637 -487.70573793 371.01568235 -489.78491211 368.61645508 C-516.69869684 337.40744801 -540.16759276 302.92298796 -548 262 C-548.15839355 261.19159668 -548.31678711 260.38319336 -548.47998047 259.55029297 C-551.17480133 245.67588158 -552.23636682 232.13480245 -552.25 218 C-552.25100708 217.2717804 -552.25201416 216.54356079 -552.25305176 215.79327393 C-552.2423219 204.29181551 -551.58585272 193.23508422 -549 182 C-548.7215625 180.72125 -548.443125 179.4425 -548.15625 178.125 C-539.99451623 144.35230856 -518.33858116 117.76828048 -488.98193359 99.76220703 C-461.4279997 83.47568105 -429.27621598 74.63305204 -398 69 C-397.15985352 68.84692383 -396.31970703 68.69384766 -395.45410156 68.53613281 C-371.59041349 64.29687485 -347.30840428 63.59684657 -323.125 63.625 C-321.82016663 63.6235498 -320.51533325 63.62209961 -319.17095947 63.62060547 C-294.36588538 63.60947267 -269.64272428 64.73009562 -244.875 66 C-183.14248922 70.51393737 -183.14248922 70.51393737 -122 64 C-120.93007813 63.76394043 -119.86015625 63.52788086 -118.7578125 63.28466797 C-76.13219192 53.56226539 -35.5939576 32.06656386 -4.00390625 1.73046875 C-2 0 -2 0 0 0 Z " fill="#3E7614" transform="translate(566,53)"/>
<path d="M0 0 C1.29986439 3.72016403 0.72585588 6.64690918 0.0859375 10.48828125 C-1.34177584 20.03848993 -1.39555214 29.54746018 -1.375 39.1875 C-1.37468277 40.56571426 -1.37468277 40.56571426 -1.37435913 41.97177124 C-1.33784817 57.93917199 -0.17199207 73.31212342 3 89 C3.28883057 90.43375977 3.28883057 90.43375977 3.58349609 91.89648438 C10.57618558 125.47541434 24.53613794 156.72716718 40.05712891 187.15087891 C45.28087118 197.39547342 50.33547175 207.71262604 55.23583984 218.1159668 C57.55013443 223.01447681 59.9380997 227.86627475 62.38671875 232.69921875 C66.10655486 240.08176544 69.46132652 247.60490792 72.75 255.1875 C73.19937927 256.22022034 73.19937927 256.22022034 73.65783691 257.27380371 C90.26983061 295.47547124 105.13464732 334.19685227 114 375 C114.18014648 375.81984375 114.36029297 376.6396875 114.54589844 377.484375 C116.63277791 387.08477534 118.34213952 396.70494503 119.6875 406.4375 C119.80689941 407.30044678 119.92629883 408.16339355 120.04931641 409.05249023 C121.74722369 421.97845445 122.18646681 434.80621272 122.18530273 447.82641602 C122.18747673 450.53352904 122.20566526 453.24022487 122.22460938 455.94726562 C122.27786499 472.031193 121.35732852 488.04196657 117.6875 503.75 C117.46876221 504.71333252 117.25002441 505.67666504 117.0246582 506.66918945 C115.10339299 514.93221426 112.87606827 523.0182509 110 531 C109.72317383 531.76876465 109.44634766 532.5375293 109.16113281 533.32958984 C100.60549632 556.66104179 88.52794122 576.61436171 71.35620117 594.52880859 C69.99343447 596.00712221 68.72985439 597.53610467 67.46875 599.1015625 C65.08388806 601.90151117 62.68621012 604.09131308 59.8125 606.375 C58.84054687 607.1484375 57.86859375 607.921875 56.8671875 608.71875 C55.92101562 609.4715625 54.97484375 610.224375 54 611 C53.23945312 611.6496875 52.47890625 612.299375 51.6953125 612.96875 C27.17708561 633.6692599 -4.07330446 645.24009651 -35 652 C-35.76328613 652.17934082 -36.52657227 652.35868164 -37.31298828 652.54345703 C-62.65151488 658.39706939 -91.83193313 656.39315719 -117 651 C-118.47968262 650.68651611 -118.47968262 650.68651611 -119.98925781 650.36669922 C-187.83152065 635.56293641 -252.46712076 598.42323672 -309.37890625 559.77734375 C-311.35341066 558.43844732 -313.34308861 557.12188709 -315.33984375 555.81640625 C-315.89897461 555.45023193 -316.45810547 555.08405762 -317.03417969 554.70678711 C-318.58771817 553.69028843 -320.14339647 552.67706222 -321.69921875 551.6640625 C-324 550 -324 550 -325 548 C-317.16750555 549.43083614 -309.48065694 551.3606011 -301.77316284 553.34143066 C-283.33112492 558.05940604 -265.00088363 561.70862332 -246.125 564.1875 C-244.21738892 564.43838379 -244.21738892 564.43838379 -242.27124023 564.69433594 C-226.4878879 566.68069361 -210.88432842 567.20616224 -195 567.1875 C-194.04879272 567.18689575 -193.09758545 567.1862915 -192.11755371 567.18566895 C-177.99732094 567.16133088 -164.00768554 566.95125261 -150 565 C-149.08557129 564.87641113 -148.17114258 564.75282227 -147.22900391 564.62548828 C-96.59002924 557.5072136 -49.7780837 530.90453711 -12 497 C-11.43265137 496.49968262 -10.86530273 495.99936523 -10.28076172 495.48388672 C-2.75880969 488.84912835 3.94325221 482.03935228 10 474 C10.79921875 472.96617187 11.5984375 471.93234375 12.421875 470.8671875 C19.46988655 461.54358477 24.93024393 451.51147794 30 441 C30.30421875 440.37577148 30.6084375 439.75154297 30.921875 439.10839844 C50.96199077 396.97216445 45.38749366 348.20847071 30.48828125 305.671875 C21.90769609 282.07327845 11.20560301 259.37277365 0.23779297 236.8112793 C-6.01273906 223.95268568 -12.10758861 211.02699674 -18 198 C-18.50724609 196.87932129 -19.01449219 195.75864258 -19.53710938 194.60400391 C-28.14061595 175.42419445 -36.08358277 155.7560028 -36.203125 134.453125 C-36.20882507 133.64244568 -36.21452515 132.83176636 -36.22039795 131.996521 C-36.22980533 130.28203617 -36.23636489 128.56753361 -36.24023438 126.85302734 C-36.2498169 124.29880628 -36.28082826 121.74543477 -36.3125 119.19140625 C-36.55177245 81.87302271 -24.35151932 44.7117323 -7 12 C-6.40574219 10.87851563 -5.81148437 9.75703125 -5.19921875 8.6015625 C-1.22823816 1.22823816 -1.22823816 1.22823816 0 0 Z " fill="#3E7614" transform="translate(704,135)"/>
<path d="M0 0 C2.53002433 2.22563078 4.99056146 4.50768132 7.4375 6.82421875 C8.32179688 7.6440625 9.20609375 8.46390625 10.1171875 9.30859375 C30.00505272 28.35136555 42.42921488 53.1042459 48.03076172 79.90234375 C48.37249344 81.51705691 48.74691333 83.1248036 49.12890625 84.73046875 C55.70676016 116.00977405 47.49175078 149.36194216 32.4375 176.82421875 C31.88449219 177.87867188 31.33148437 178.933125 30.76171875 180.01953125 C13.64861038 211.30507066 -18.03394804 233.00728722 -51.51953125 243.1953125 C-88.76168114 253.70591446 -126.88550076 247.57668954 -160.44140625 229.21484375 C-170.13691 223.7255597 -178.49798362 216.45896467 -186.5625 208.82421875 C-187.44679688 208.004375 -188.33109375 207.18453125 -189.2421875 206.33984375 C-205.63247473 190.64602765 -216.53520955 171.2943238 -223.5625 149.82421875 C-223.81652588 149.05207031 -224.07055176 148.27992188 -224.33227539 147.484375 C-235.72831645 111.36693133 -229.63372465 73.10531484 -212.70458984 39.96728516 C-210.04279682 34.97258246 -206.9560887 30.35561887 -203.5625 25.82421875 C-202.91152344 24.95152344 -202.26054687 24.07882812 -201.58984375 23.1796875 C-178.40782801 -6.41529708 -145.33167686 -27.14512608 -107.66015625 -31.859375 C-68.45682123 -35.34919762 -30.25535379 -25.68937814 0 0 Z " fill="#3E7614" transform="translate(509.5625,312.17578125)"/>
<path d="M0 0 C19.47 0 38.94 0 59 0 C60.32775656 5.31102626 61.31915076 10.03389806 62.0625 15.375 C67.83874963 50.74298852 87.06574553 81.19379267 111 107 C111.53753906 107.59167969 112.07507813 108.18335938 112.62890625 108.79296875 C140.35783791 138.05081394 185.27562887 157.6217147 225.2980957 159.1237793 C229.28239927 159.20741287 233.26496956 159.24608538 237.25 159.25 C237.9604245 159.25100708 238.670849 159.25201416 239.40280151 159.25305176 C256.50428973 159.23669153 272.64183851 157.17029821 289 152 C289.76812012 151.75765625 290.53624023 151.5153125 291.32763672 151.265625 C303.09422243 147.4862375 314.1857854 142.98748407 325 137 C325.63244629 136.65211426 326.26489258 136.30422852 326.91650391 135.94580078 C356.99512131 119.19286195 381.2509173 93.49880258 397 63 C397.34659668 62.33274902 397.69319336 61.66549805 398.05029297 60.97802734 C406.02469441 45.41502219 411.82636787 29.08389458 414.39453125 11.76171875 C415.03265307 7.79712965 416.02607024 3.89571906 417 0 C454.62 0 492.24 0 531 0 C534.14685603 7.55245446 536.98337661 14.57586576 539.125 22.375 C539.37725342 23.27694092 539.62950684 24.17888184 539.8894043 25.1081543 C546.81069526 50.21769386 548.97594319 76.4219328 543 102 C542.7215625 103.27359375 542.443125 104.5471875 542.15625 105.859375 C536.54655961 129.16860574 524.03114798 150.38091087 507.42822266 167.52050781 C506.01310314 168.98642649 504.62153876 170.47222272 503.23046875 171.9609375 C460.98549357 216.43356092 400.56981436 241.26814024 340 243 C276.12492148 244.57756539 212.51856752 232.06230483 155 204 C154.15743652 203.59168945 153.31487305 203.18337891 152.44677734 202.76269531 C134.53665715 193.99259034 117.95735886 182.9213825 102.55664062 170.27148438 C100.95186597 168.96068349 99.32994045 167.67393731 97.703125 166.390625 C96.68734375 165.58109375 95.6715625 164.7715625 94.625 163.9375 C93.73039062 163.22464844 92.83578125 162.51179687 91.9140625 161.77734375 C90.96660156 160.89755859 90.96660156 160.89755859 90 160 C90 159.34 90 158.68 90 158 C89.11683105 157.60361328 89.11683105 157.60361328 88.21582031 157.19921875 C85.91927416 155.95631056 84.39166834 154.64993519 82.546875 152.8125 C81.928125 152.19632813 81.309375 151.58015625 80.671875 150.9453125 C80.03765625 150.30335938 79.4034375 149.66140625 78.75 149 C78.1003125 148.35804688 77.450625 147.71609375 76.78125 147.0546875 C76.16765625 146.43851563 75.5540625 145.82234375 74.921875 145.1875 C74.36081055 144.62417969 73.79974609 144.06085938 73.22167969 143.48046875 C72 142 72 142 72 140 C71.01 139.67 70.02 139.34 69 139 C66.25759126 136.10325656 63.85474233 132.92606194 61.39794922 129.78515625 C60.43843173 128.55986951 59.47361947 127.3387162 58.50439453 126.12109375 C49.84156825 115.23099285 42.15243941 103.93361962 35 92 C34.58766113 91.31583008 34.17532227 90.63166016 33.75048828 89.92675781 C27.24228104 79.0359104 21.91638252 67.68750142 17 56 C16.65582031 55.18466797 16.31164062 54.36933594 15.95703125 53.52929688 C8.87467481 36.50179242 3.0352115 18.21126899 0 0 Z " fill="#3E7614" transform="translate(182,440)"/>
<path d="M0 0 C0.7104245 -0.00100708 1.420849 -0.00201416 2.15280151 -0.00305176 C19.25428973 0.01330847 35.39183851 2.07970179 51.75 7.25 C52.90218018 7.61351562 52.90218018 7.61351562 54.07763672 7.984375 C65.84422243 11.7637625 76.9357854 16.26251593 87.75 22.25 C88.69866943 22.77182861 88.69866943 22.77182861 89.66650391 23.30419922 C104.24148936 31.42205372 116.69536516 41.79266689 128.75 53.25 C129.69746094 54.11818359 129.69746094 54.11818359 130.6640625 55.00390625 C145.30446214 68.84636941 156.37569368 87.09413477 164.75 105.25 C165.29527344 106.42433594 165.84054687 107.59867187 166.40234375 108.80859375 C173.38399742 124.45957818 179.75 142.92232905 179.75 160.25 C211.76 160.25 243.77 160.25 276.75 160.25 C283.51066597 173.77133195 283.51066597 173.77133195 285.7421875 179.0390625 C286.21914063 180.16441406 286.69609375 181.28976562 287.1875 182.44921875 C287.8990625 184.14498047 287.8990625 184.14498047 288.625 185.875 C289.12257813 187.04417969 289.62015625 188.21335937 290.1328125 189.41796875 C293.75 197.99388307 293.75 197.99388307 293.75 200.25 C256.13 200.25 218.51 200.25 179.75 200.25 C179.09 205.53 178.43 210.81 177.75 216.25 C176.56626557 221.33567386 175.30310163 226.27937255 173.75 231.25 C173.40026123 232.37897705 173.40026123 232.37897705 173.04345703 233.53076172 C164.02184457 262.11759684 149.07270637 285.38658304 128.75 307.25 C128.13898438 307.91515625 127.52796875 308.5803125 126.8984375 309.265625 C108.75504344 328.25828432 85.1373202 341.20142771 60.75 350.25 C59.57179688 350.69214844 58.39359375 351.13429688 57.1796875 351.58984375 C39.05084321 358.03086942 20.60161436 360.48357401 1.4375 360.5 C0.72824371 360.50067474 0.01898743 360.50134949 -0.71176147 360.50204468 C-49.29924367 360.42885943 -92.40108504 340.37216692 -127.25 307.25 C-127.88164062 306.67121094 -128.51328125 306.09242188 -129.1640625 305.49609375 C-135.25460363 299.73750154 -140.25467657 292.95202964 -145.25 286.25 C-145.6718457 285.68845215 -146.09369141 285.1269043 -146.52832031 284.54833984 C-164.88931607 259.73401555 -174.46358993 230.54128058 -178.25 200.25 C-197.72 200.25 -217.19 200.25 -237.25 200.25 C-241.25 177.25 -241.25 177.25 -242.25 160.25 C-221.13 160.25 -200.01 160.25 -178.25 160.25 C-177.92 156.62 -177.59 152.99 -177.25 149.25 C-176.61176466 145.87420975 -175.93535447 142.581029 -175.125 139.25 C-174.90690674 138.35063721 -174.68881348 137.45127441 -174.46411133 136.5246582 C-170.62680156 121.30212905 -164.79722671 106.99711029 -157.25 93.25 C-156.90211426 92.61610352 -156.55422852 91.98220703 -156.19580078 91.32910156 C-148.56978351 77.64066233 -138.99195409 65.63297486 -128.25 54.25 C-127.56808594 53.51523437 -126.88617188 52.78046875 -126.18359375 52.0234375 C-93.86764176 18.33866987 -46.16885033 0.04535316 0 0 Z M-96.25 79.25 C-97.13429688 80.06984375 -98.01859375 80.8896875 -98.9296875 81.734375 C-118.81755272 100.7771468 -131.24171488 125.53002715 -136.84326172 152.328125 C-137.18499344 153.94283816 -137.55941333 155.55058485 -137.94140625 157.15625 C-144.51926016 188.4355553 -136.30425078 221.78772341 -121.25 249.25 C-120.69699219 250.30445313 -120.14398438 251.35890625 -119.57421875 252.4453125 C-102.87522376 282.97378544 -71.27452182 305.61967211 -38.38671875 315.4453125 C-1.20762587 325.46640435 38.03127595 320.78925093 71.60546875 301.7578125 C81.23323116 296.05621078 89.64047579 288.92735521 97.75 281.25 C98.63429688 280.43015625 99.51859375 279.6103125 100.4296875 278.765625 C116.81997473 263.0718089 127.72270955 243.72010505 134.75 222.25 C135.00402588 221.47785156 135.25805176 220.70570313 135.51977539 219.91015625 C146.91581645 183.79271258 140.82122465 145.53109609 123.89208984 112.39306641 C121.23029682 107.39836371 118.1435887 102.78140012 114.75 98.25 C114.09902344 97.37730469 113.44804688 96.50460937 112.77734375 95.60546875 C89.53440721 65.93271052 56.8396118 45.5152985 19.04858398 40.92163086 C-24.46680012 36.55173812 -64.35870689 49.05824289 -96.25 79.25 Z " fill="#A0CE30" transform="translate(419.25,239.75)"/>
<path d="M0 0 C22.87286661 34.30929992 27.18891817 94.38777295 27.18530273 134.82641602 C27.18747673 137.53352904 27.20566526 140.24022487 27.22460938 142.94726562 C27.27786499 159.031193 26.35732852 175.04196657 22.6875 190.75 C22.46876221 191.71333252 22.25002441 192.67666504 22.0246582 193.66918945 C20.10339299 201.93221426 17.87606827 210.0182509 15 218 C14.72317383 218.76876465 14.44634766 219.5375293 14.16113281 220.32958984 C5.60549632 243.66104179 -6.47205878 263.61436171 -23.64379883 281.52880859 C-25.00656553 283.00712221 -26.27014561 284.53610467 -27.53125 286.1015625 C-29.91611194 288.90151117 -32.31378988 291.09131308 -35.1875 293.375 C-36.15945313 294.1484375 -37.13140625 294.921875 -38.1328125 295.71875 C-39.07898438 296.4715625 -40.02515625 297.224375 -41 298 C-41.76054688 298.6496875 -42.52109375 299.299375 -43.3046875 299.96875 C-67.82291439 320.6692599 -99.07330446 332.24009651 -130 339 C-130.76328613 339.17934082 -131.52657227 339.35868164 -132.31298828 339.54345703 C-169.721159 348.18535378 -210.10239713 340.02332843 -246 329 C-243.63781824 326.26227955 -241.55379817 325.29773014 -238.140625 324.18359375 C-196.26330585 309.65851572 -156.97722776 283.19667451 -124.54296875 253.32421875 C-122.43648833 251.39894094 -120.2998352 249.53405819 -118.125 247.6875 C-109.45967291 240.1477721 -101.38394645 231.78964304 -94 223 C-92.79150391 221.6078125 -92.79150391 221.6078125 -91.55859375 220.1875 C-74.04112915 199.93521454 -59.19401686 177.74308238 -46.27832031 154.31005859 C-45.16952956 152.30635765 -44.03971029 150.3173125 -42.8984375 148.33203125 C-28.75896325 123.04972029 -18.43898374 94.93427569 -11.67919922 66.82177734 C-11.022103 64.09182835 -10.34199671 61.36838618 -9.66015625 58.64453125 C-5.38141778 41.13301137 -2.61288473 23.20800242 -1.25488281 5.23120117 C-1 3 -1 3 0 0 Z " fill="#A0CE30" transform="translate(799,448)"/>
<path d="M0 0 C1.29986439 3.72016403 0.72585588 6.64690918 0.0859375 10.48828125 C-1.34177584 20.03848993 -1.39555214 29.54746018 -1.375 39.1875 C-1.37478851 40.10630951 -1.37457703 41.02511902 -1.37435913 41.97177124 C-1.33784817 57.93917199 -0.17199207 73.31212342 3 89 C3.19255371 89.95583984 3.38510742 90.91167969 3.58349609 91.89648438 C10.57618558 125.47541434 24.53613794 156.72716718 40.05712891 187.15087891 C45.28087118 197.39547342 50.33547175 207.71262604 55.23583984 218.1159668 C57.55013443 223.01447681 59.9380997 227.86627475 62.38671875 232.69921875 C66.10657304 240.08180152 69.46083921 247.60508829 72.75 255.1875 C73.04659515 255.86866882 73.34319031 256.54983765 73.64877319 257.25164795 C77.96490917 267.16990227 82.1949099 277.1226759 86.3125 287.125 C86.77430664 288.23770264 87.23611328 289.35040527 87.71191406 290.49682617 C88.13311523 291.53170166 88.55431641 292.56657715 88.98828125 293.6328125 C89.35477783 294.52887207 89.72127441 295.42493164 90.09887695 296.34814453 C91 299 91 299 92 305 C71.54 305 51.08 305 30 305 C27.36 298.07 24.72 291.14 22 284 C20.00378912 279.30069061 17.99022843 274.6427761 15.875 270 C15.32154815 268.77485097 14.76816483 267.54967099 14.21484375 266.32446289 C9.71801387 256.40898665 4.99821538 246.60452402 0.23852539 236.81323242 C-6.01176585 223.95374679 -12.10729892 211.02763718 -18 198 C-18.50724609 196.87932129 -19.01449219 195.75864258 -19.53710938 194.60400391 C-28.14061595 175.42419445 -36.08358277 155.7560028 -36.203125 134.453125 C-36.20882507 133.64244568 -36.21452515 132.83176636 -36.22039795 131.996521 C-36.22980533 130.28203617 -36.23636489 128.56753361 -36.24023438 126.85302734 C-36.2498169 124.29880628 -36.28082826 121.74543477 -36.3125 119.19140625 C-36.55177245 81.87302271 -24.35151932 44.7117323 -7 12 C-6.10861328 10.31777344 -6.10861328 10.31777344 -5.19921875 8.6015625 C-1.22823816 1.22823816 -1.22823816 1.22823816 0 0 Z " fill="#3E7614" transform="translate(704,135)"/>
<path d="M0 0 C-3.81699143 3.92542868 -7.8367287 7.50982746 -12 11.0625 C-25.75145628 22.90009381 -39.26831954 35.11956965 -51 49 C-51.80824219 49.93070313 -52.61648437 50.86140625 -53.44921875 51.8203125 C-71.03615752 72.15990611 -85.9885129 94.49360985 -99 118 C-99.41169434 118.73299316 -99.82338867 119.46598633 -100.24755859 120.22119141 C-123.01994126 160.94091724 -137.75076023 207.60154731 -143 254 C-143.66 254 -144.32 254 -145 254 C-156.13718796 234.89789688 -163.83254524 216.77423823 -168 195 C-168.15839355 194.19159668 -168.31678711 193.38319336 -168.47998047 192.55029297 C-171.17480133 178.67588158 -172.23636682 165.13480245 -172.25 151 C-172.25100708 150.2717804 -172.25201416 149.54356079 -172.25305176 148.79327393 C-172.2423219 137.29181551 -171.58585272 126.23508422 -169 115 C-168.7215625 113.72125 -168.443125 112.4425 -168.15625 111.125 C-159.99451623 77.35230856 -138.33858116 50.76828048 -108.98193359 32.76220703 C-81.41297513 16.46680036 -49.28093735 7.67745993 -18 2 C-16.96214355 1.81018555 -15.92428711 1.62037109 -14.85498047 1.42480469 C-13.80842285 1.24079102 -12.76186523 1.05677734 -11.68359375 0.8671875 C-10.7392749 0.7007373 -9.79495605 0.53428711 -8.82202148 0.36279297 C-5.85165049 -0.01907149 -2.99151471 -0.06130493 0 0 Z " fill="#A0CE30" transform="translate(186,120)"/>
<path d="M0 0 C32.01 0 64.02 0 97 0 C97.99 9.24 98.98 18.48 100 28 C100.99 33.94 100.99 33.94 102 40 C93.04637246 40.25587068 84.09401896 40.4508095 75.13752174 40.56993389 C70.97756675 40.62713655 66.82012781 40.70458641 62.66162109 40.82983398 C58.64133762 40.95014835 54.62345875 41.01528175 50.60151291 41.04364967 C49.07429528 41.06383849 47.5471966 41.10326863 46.02101517 41.16303062 C34.11717706 41.61024058 34.11717706 41.61024058 28.90350342 37.64492798 C26.35953187 34.87706444 24.16177373 32.07181047 22 29 C20.71700607 27.40963092 19.42683958 25.82497966 18.125 24.25 C17.4959375 23.44820313 16.866875 22.64640625 16.21875 21.8203125 C14.46510118 19.59120255 12.69368897 17.38152667 10.90625 15.1796875 C10.36468262 14.5103418 9.82311523 13.84099609 9.26513672 13.15136719 C8.19114536 11.82446509 7.11473625 10.49951541 6.03564453 9.17675781 C5.54177246 8.56413086 5.04790039 7.95150391 4.5390625 7.3203125 C4.09771973 6.77648926 3.65637695 6.23266602 3.20166016 5.67236328 C2 4 2 4 0 0 Z " fill="#A0CE30" transform="translate(60,400)"/>
<path d="M0 0 C20.79 0 41.58 0 63 0 C78 36 78 36 78 40 C57.54 40 37.08 40 16 40 C13.36 33.07 10.72 26.14 8 19 C5.36 12.73 2.72 6.46 0 0 Z " fill="#A0CE30" transform="translate(718,400)"/>
<path d="M0 0 C0.66 0 1.32 0 2 0 C2.35191406 0.97839844 2.70382812 1.95679687 3.06640625 2.96484375 C6.06277059 11.02374673 9.22576328 17.51060553 15 24 C15.68835938 24.91652344 15.68835938 24.91652344 16.390625 25.8515625 C22.91187452 34.35916963 33.11137355 39.64687695 43.5 41.6875 C44.325 41.790625 45.15 41.89375 46 42 C45.32951016 45.78736154 43.59806307 48.60321187 41.625 51.875 C39.23772023 55.84702719 37.02801863 59.83198626 35 64 C34.113125 63.236875 33.22625 62.47375 32.3125 61.6875 C31.66796875 61.13707031 31.0234375 60.58664063 30.359375 60.01953125 C28.635383 58.5438626 26.91746109 57.06109404 25.203125 55.57421875 C10.34295068 42.75497761 -5.58733326 31.73430537 -22 21 C-17.8541366 16.80602213 -13.60540088 12.73057154 -9.3125 8.6875 C-8.63638672 8.04232422 -7.96027344 7.39714844 -7.26367188 6.73242188 C-6.61591797 6.12333984 -5.96816406 5.51425781 -5.30078125 4.88671875 C-4.71466064 4.33201904 -4.12854004 3.77731934 -3.5246582 3.20581055 C-2 2 -2 2 0 2 C0 1.34 0 0.68 0 0 Z " fill="#A0CE30" transform="translate(643,77)"/>
<path d="M0 0 C0.515625 1.19625 1.03125 2.3925 1.5625 3.625 C5.49017758 11.39795634 11.99953885 15.1162848 20 18 C23.53632285 19.11020015 26.82116295 19.11444926 30.515625 19.09765625 C32.39121094 19.09282227 32.39121094 19.09282227 34.3046875 19.08789062 C35.60664062 19.07951172 36.90859375 19.07113281 38.25 19.0625 C39.56742188 19.05798828 40.88484375 19.05347656 42.2421875 19.04882812 C45.49483741 19.03704316 48.74739584 19.02059011 52 19 C50.18148786 22.96684989 47.81925415 25.25944879 44.5625 28.1875 C43.59441406 29.06792969 42.62632812 29.94835937 41.62890625 30.85546875 C39 33 39 33 36 34 C33.45524376 32.79139262 31.06507141 31.52000477 28.625 30.125 C21.91689867 26.42642781 15.11671871 23.17319207 8.0625 20.1875 C7.21187988 19.82736816 6.36125977 19.46723633 5.48486328 19.09619141 C-0.3166473 16.66395461 -6.15305089 14.32056388 -12 12 C-12 9 -12 9 -9.8828125 6.73828125 C-8.97273437 5.93777344 -8.06265625 5.13726562 -7.125 4.3125 C-5.76761719 3.10013672 -5.76761719 3.10013672 -4.3828125 1.86328125 C-2 0 -2 0 0 0 Z " fill="#9FCD30" transform="translate(566,53)"/>
<path d="M0 0 C1.16777492 3.53690297 0.89138151 6.40632688 0.44140625 10.078125 C0.30283203 11.23828125 0.16425781 12.3984375 0.02148438 13.59375 C-0.12998047 14.8003125 -0.28144531 16.006875 -0.4375 17.25 C-0.58509766 18.47203125 -0.73269531 19.6940625 -0.88476562 20.953125 C-1.25004194 23.96960038 -1.62202781 26.98509354 -2 30 C-5 27 -8 24 -11 21 C-9.56781426 16.11857111 -7.49519668 12.0387872 -4.9375 7.6875 C-4.57333984 7.05521484 -4.20917969 6.42292969 -3.83398438 5.77148438 C-1.16003667 1.16003667 -1.16003667 1.16003667 0 0 Z " fill="#A0CE30" transform="translate(704,135)"/>
</svg>
