<svg version="1.0" xmlns="http://www.w3.org/2000/svg"
     width="150.000000pt" height="150.000000pt" viewBox="0 0 150.000000 150.000000"
     preserveAspectRatio="xMidYMid meet">

    <g transform="translate(0.000000,150.000000) scale(0.100000,-0.100000)"
       fill="#3E7614" stroke="none">
        <path d="M602 1330 c-109 -29 -187 -74 -272 -160 -87 -86 -131 -163 -160 -276
-36 -141 -18 -294 52 -427 42 -81 164 -203 245 -245 133 -70 286 -88 427 -52
113 29 190 73 276 160 87 86 131 163 160 276 36 141 18 294 -52 427 -42 81
-164 203 -245 245 -132 69 -291 88 -431 52z m263 -135 c244 -64 393 -316 330
-560 -22 -82 -58 -144 -122 -208 -119 -119 -279 -163 -438 -122 -82 22 -144
58 -210 124 -104 104 -149 240 -128 386 39 271 305 448 568 380z" />
        <path fill="#A0CE30" d="M653 1086 c-103 -34 -176 -98 -222 -196 -22 -46 -26 -69 -26 -140 0
-76 4 -93 33 -152 38 -77 92 -130 171 -167 47 -22 70 -26 141 -26 71 0 94 4
141 26 79 37 133 90 171 167 29 59 33 76 33 152 0 71 -4 94 -26 141 -58 124
-169 199 -302 205 -43 3 -89 -2 -114 -10z m187 -88 c33 -17 51 -35 68 -68 43
-85 22 -157 -65 -221 -29 -22 -53 -44 -53 -49 0 -5 -10 -14 -21 -21 -47 -25
-91 29 -70 85 6 13 35 43 65 66 60 43 69 69 39 102 -22 24 -77 24 -103 -2 -14
-14 -20 -33 -20 -63 0 -50 -13 -67 -51 -67 -72 0 -80 126 -12 201 56 62 144
76 223 37z m-50 -408 c24 -24 25 -48 4 -78 -31 -44 -104 -17 -104 39 0 55 60
79 100 39z" />
    </g>
</svg>
